<svg xmlns="http://www.w3.org/2000/svg" xml:space="preserve" x="0px" y="0px" viewBox="0 0 320 320"><path d="m127.96 164.67 24.93 61.43v39.62c-22.62-37.53-53.11-63.03-95.11-75.52a21.48 21.48 0 0 1-13.51-11.88L10 101.02l44.07 29.33zm64.08 0-24.93 61.43v39.62c22.62-37.53 53.11-63.03 95.11-75.52a21.48 21.48 0 0 0 13.51-11.88l34.27-77.3-44.07 29.33z" style="fill:#754a3d"/><linearGradient id="a" x1="34.0372" x2="285.963" y1="134.7526" y2="134.7526" gradientUnits="userSpaceOnUse"><stop offset="0" style="stop-color:#b7856c"/><stop offset="1" style="stop-color:#8e6050"/></linearGradient><path d="m127.96 164.67 20.51 50.55-41.53-20.78a102.6 102.6 0 0 1-52.88-64.09L34.04 54.28l62.32 59.65c-2.38 20.56 15.89 38.63 36.59 38.77zm95.68-50.74c2.38 20.56-15.89 38.63-36.59 38.77l4.98 11.97-20.51 50.55 41.53-20.78a102.6 102.6 0 0 0 52.88-64.09l20.03-76.07zm-25.9 1.39a124 124 0 0 1-75.47 0l24.81 25.16L160 180.22l12.92-39.74z" style="fill:url(#a)"/><path d="M205.77 170.07c14.6-11.45 27.62-26.18 31.1-44.81.59-2.96.89-6.09.81-9.08 9.37-8.31 18.97-16.38 29.33-23.45-7.32 9.64-15.55 18.52-24.01 27.16l.97-2.52c1.14 23.62-16.55 45.11-38.2 52.7m-91.36 0c-21.65-7.58-39.34-29.08-38.2-52.7l.96 2.5c-8.33-8.64-16.43-17.51-23.62-27.14 10.24 7.08 19.71 15.16 28.95 23.46-.15 10.86 3.83 21.44 9.64 30.55 5.85 9.06 13.76 16.5 22.27 23.33m62.85-42.47c-10.1 6.66-23.97 6.87-34.02 0 5.83-.18 11.32.66 16.99.57 5.68.01 11.21-.82 17.03-.57" style="fill:#b7856c"/></svg>