<svg xmlns="http://www.w3.org/2000/svg" xml:space="preserve" x="0px" y="0px" viewBox="0 0 320 320"><path d="M285.71 107.15s9.15-31.24-7.26-51.74c-4.73 28.4-10.73 33.76-25.87 54.27 0-6.94-2.44-13.57-2.44-13.57s-11.45 43.54-44.89 58.05c-23.93 10.39-37.04 15.47-45.25 40.82-8.21-25.35-21.32-30.43-45.25-40.82-33.45-14.51-44.89-58.05-44.89-58.05s-2.44 6.63-2.44 13.57C52.28 89.17 46.28 83.81 41.55 55.41c-16.41 20.51-7.26 51.74-7.26 51.74s-1.58 1.89-24.29-9.78c17.35 59.63 67.52 91.89 67.52 91.89 63.51 8.28 72.15 13.3 80.13 48.28.9 4.65 2.36 12.86 2.36 12.86s1.3-8.21 2.36-12.86c7.98-34.97 16.62-40 80.13-48.28 0 0 50.17-32.26 67.52-91.89-22.74 11.68-24.31 9.78-24.31 9.78" style="fill:#4e4d8c"/><path d="M123.9 247.24s-17.35-34.39-69.1-35.97c-3.16-19.25-16.72-45.12-41.02-58.68 27.45-4.73 50.8 12.99 50.8 12.99s-7.11-22.42-28.08-47.06c22.72-1.9 103.17 73.82 87.4 128.72m72.2 0s17.35-34.39 69.1-35.97c3.16-19.25 16.72-45.12 41.02-58.68-27.45-4.73-50.8 12.99-50.8 12.99s7.11-22.42 28.08-47.06c-22.72-1.9-103.17 73.82-87.4 128.72" style="fill:#2a94ac"/><linearGradient id="a" x1="96.8173" x2="223.1827" y1="155.4953" y2="155.4953" gradientUnits="userSpaceOnUse"><stop offset="0" style="stop-color:#ffd66a"/><stop offset="1" style="stop-color:#967434"/></linearGradient><path d="M223.18 109.88c-2.76 19.79-11.59 44.66-33.99 52.13-14.25 4.75-27.89 33.12-27.89 33.12l-1.31 5.99-1.31-5.99s-13.64-28.37-27.89-33.12c-22.4-7.46-31.23-32.33-33.99-52.13 10.99 14.29 21.36 25.08 34.16 35.34 3.58-1.44 6.7-2.38 10.55-2.38 7.86 9.4 12.82 24.98 15.76 37.64.21.92 5.22.92 5.43 0 2.94-12.66 7.91-28.24 15.76-37.64 3.85 0 6.96.94 10.54 2.38 12.82-10.26 23.19-21.05 34.18-35.34m-63.21 62.78v.43s.01-.09.03-.22c.02.13.03.22.03.22v-.43c.56-4.21 5.91-38.29 32.19-50.14h-17.77s-13.88 20.04-14.45 36.7c-.57-16.66-14.45-36.7-14.45-36.7h-17.77c26.28 11.85 31.63 45.93 32.19 50.14" style="fill:url(#a)"/><path d="M160.03 141.99c.85-10.87 11.67-22.95 11.67-22.95l-11.67-37.93v-.18l-.03.09-.03-.09v.18l-11.67 37.93s10.82 12.08 11.67 22.95v.51c0-.08.02-.17.03-.25l.03.25z" style="fill:#2a94ac"/><linearGradient id="b" x1="32.7166" x2="287.2469" y1="177.9839" y2="177.9839" gradientUnits="userSpaceOnUse"><stop offset="0" style="stop-color:#ffd66a"/><stop offset="1" style="stop-color:#967434"/></linearGradient><path d="M147.25 188.87c11.04 15.46 7.26 62.79 7.26 62.79s-2.98 13.01-12.62 12.94c13.57-49.51-41.01-93.39-59.63-99.02.63 22.77 26.5 47.77 47.63 61.79 6.61 17.98-12.92 33.76-12.92 33.76 10.1-31.24-46.38-52.06-46.38-52.06s-11.67-25.87-37.86-53.32c19.88 5.68 33.13 23.03 33.13 23.03s-2.84-9.78-19.88-87.4c14.83 47.33 91.81 98.75 91.81 98.75s-.01 0 9.46-1.26m106.87-10.1s2.84-9.78 19.88-87.4c-14.83 47.33-91.81 98.75-91.81 98.75l-9.46-1.26c-11.04 15.46-7.26 62.79-7.26 62.79s2.98 13.01 12.62 12.94c-13.57-49.51 41.02-93.39 59.63-99.02-.63 22.77-26.5 47.77-47.63 61.79-6.61 17.98 12.92 33.76 12.92 33.76-10.1-31.24 46.38-52.06 46.38-52.06s11.67-25.87 37.86-53.32c-19.88 5.68-33.13 23.03-33.13 23.03" style="fill:url(#b)"/><path d="M160.31 96.2a88.7 88.7 0 0 1 0 33.01c-2.07-10.89-2.05-22.13 0-33.01" style="fill:#84e0f7"/><path d="M169.25 118.86c-3.22.13-6.38-.6-9.41-1.58h.94c-3.08 1-6.29 1.73-9.56 1.57.65-.57 1.35-1 2.04-1.45 2.21-1.35 4.61-2.35 7.06-3.12 3.18 1.08 6.31 2.44 8.93 4.58" style="fill:#84e0f7"/><path d="M72.6 162.98c4.24 21.83 17.65 40.37 33.79 55.06 3.61 3.51 7.89 6.82 11.61 10.26-4.57-2.04-9.57-4.7-13.71-7.62-3.35-2.11-6.3-4.78-9.33-7.32l-.93-.94c-1.69-1.75-3.95-3.87-5.48-5.76-10.12-11.94-17.64-27.78-15.95-43.68m63.34 35.5c12.16 10.62 16.63 29.46 14.92 45.06-.3 2.31-.73 4.6-1.25 6.86-.33-2.32-.42-4.61-.65-6.88-1.43-15.68-4.95-31.31-13.02-45.04M62.21 130.3c9.26 12.71 20.77 23.29 32.6 33.51 1.7 1.49 3.45 2.9 5.11 4.52-15.7-6.64-32.5-21.44-37.71-38.03m49 5.35c5.8 6.08 12 12.25 19.95 15.3 2.78 1.05 5.73 1.38 8.66 1.04 1.18 1.61 2.33 3.26 3.38 4.93 2.73 4.43 5.15 9.04 7.09 13.88-4.13-5.47-7.96-11.2-12.25-16.48l1.29.53c-12.32 1.46-22.7-9.26-28.12-19.2m135.8 27.36c1.69 15.9-5.84 31.75-15.93 43.69-1.52 1.89-3.79 4.01-5.48 5.76l-.93.94c-3.04 2.53-5.98 5.21-9.33 7.32-4.14 2.91-9.13 5.57-13.71 7.62 3.71-3.43 8-6.75 11.61-10.26 16.12-14.7 29.53-33.24 33.77-55.07m-63.35 35.5c-8.06 13.73-11.59 29.36-13.03 45.04-.23 2.27-.31 4.55-.65 6.88-.53-2.26-.95-4.55-1.25-6.86-1.7-15.61 2.76-34.41 14.93-45.06m73.73-68.18c-5.2 16.59-22 31.39-37.71 38.02 1.65-1.61 3.41-3.03 5.11-4.52 11.83-10.22 23.34-20.79 32.6-33.5m-49.05 5.36c-5.42 9.94-15.8 20.66-28.11 19.2l1.29-.53c-4.29 5.28-8.12 11.01-12.25 16.48 1.93-4.84 4.36-9.44 7.09-13.88 1.05-1.67 2.2-3.32 3.38-4.93 2.94.35 5.88.01 8.66-1.04 7.93-3.05 14.14-9.22 19.94-15.3" style="fill:#ffd66a"/><path d="m155.97 117.43 4.34 5.09 4.34-5.09s-4.11-12.6-4.34-12.6-4.34 12.6-4.34 12.6" style="fill:#84e0f7"/></svg>