<svg xmlns="http://www.w3.org/2000/svg" xml:space="preserve" x="0px" y="0px" viewBox="0 0 320 320"><path d="M154.07 255.02s11.18-54.92-42.64-94.84C63.46 147.36 66.02 87.32 10 77.06c27.46 41.74 34.79 82.39 34.79 82.39s14.64-31.62 109.28 95.57" style="fill:#6574b5"/><path d="m160 177.76-25.23 26.36L160 231.95l25.23-27.83zM53.56 175.1c13.53 51.54 73.48 46.52 100.34 79.78-31.97-72.37-60.04-53.82-100.34-79.78" style="fill:#6574b5"/><path d="M165.93 255.02s-11.18-54.92 42.64-94.84c47.97-12.82 45.4-72.87 101.43-83.12-27.46 41.74-34.79 82.39-34.79 82.39s-14.64-31.62-109.28 95.57" style="fill:#6574b5"/><linearGradient id="a" x1="36.6361" x2="283.3636" y1="140.0441" y2="140.0441" gradientUnits="userSpaceOnUse"><stop offset="0" style="stop-color:#9ccde3"/><stop offset="1" style="stop-color:#7698e5"/></linearGradient><path d="M171.25 144.26 160 168.6l-11.25-24.34s-34.51-34.88-43.35-59.19c21.25 20.07 39.64 31.59 39.64 31.59L160 97.7l14.96 19.17s18.45-11.79 39.64-31.8c-8.84 24.31-43.35 59.19-43.35 59.19M36.64 64.98c27.46 41.74 30.03 77.99 30.03 77.99s50.16 19.77 80.56 72.13c0 0 5.17-34.42-9.15-67.01C90.1 135.28 92.66 75.23 36.64 64.98m145.3 83.12c-14.33 32.59-9.15 67.01-9.15 67.01 30.39-52.36 80.56-72.13 80.56-72.13s2.56-36.25 30.03-77.99c-56.04 10.24-53.48 70.29-101.44 83.11" style="fill:url(#a)"/><path d="M266.44 175.1c-13.53 51.54-73.48 46.52-100.34 79.78 31.97-72.37 60.04-53.82 100.34-79.78" style="fill:#6574b5"/><path d="M149.7 124.48 160 143.6l10.29-19.12-10.3-12.45zM66.43 94.84c8.76 11.16 14.61 24.49 17.69 38.32l-1.71-2.4c4.82 2.48 11.41 5.77 15.91 8.69 13.03 8.11 24.05 19.41 32.06 32.45 1.62 2.56 3.02 5.27 4.39 7.97q-1.65-1.59-3.21-3.21c-2.96-3.07-6.43-6.5-9.55-9.43-8.54-8.09-17.59-15.41-27.6-21.52-5.38-3.33-11.16-6.34-16.87-9.74-2.13-14.09-6.22-27.75-11.11-41.13m187.14 0c-4.88 13.38-8.98 27.04-11.11 41.12-5.71 3.41-11.49 6.42-16.87 9.74-10.01 6.1-19.06 13.43-27.6 21.52-3.11 2.93-6.58 6.37-9.55 9.43q-1.56 1.62-3.21 3.21c1.37-2.7 2.77-5.41 4.39-7.97 8.01-13.04 19.03-24.34 32.06-32.45 4.47-2.91 11.12-6.23 15.91-8.69l-1.71 2.4c3.08-13.82 8.92-27.16 17.69-38.31" style="fill:#9ccde3"/></svg>