<svg xmlns="http://www.w3.org/2000/svg" xml:space="preserve" x="0px" y="0px" viewBox="0 0 320 320"><path d="M153.54 268.73s-52.72-11.48-73.6-45.41l28.71 1.04S95.6 200.35 66.9 204.53c-25.04-30.8-30.27-38.63-56.9-44.11 31.86-4.96 81.65.2 108.27 23.75s37.75 84.56 37.75 84.56m10.44.2s52.72-11.48 73.6-45.41l-28.71 1.04s13.05-24.01 41.76-19.84c25.04-30.8 30.27-38.63 56.9-44.11-31.86-4.96-81.65.2-108.27 23.75s-37.75 84.56-37.75 84.56" style="fill:#478e6e"/><linearGradient id="a" x1="39.8114" x2="280.1888" y1="148.5164" y2="148.5164" gradientUnits="userSpaceOnUse"><stop offset="0" style="stop-color:#6ae89a"/><stop offset="1" style="stop-color:#72c1a3"/></linearGradient><path d="M157.76 245.77c-45.94-39.67-46.98-31.84-46.98-31.84s2.61-40.71-36.54-36.54C19.96 129.37 46.11 51.07 46.11 51.07s7.25 70.47 95.56 122.14c-11.58 29.23 18.7 44.37 16.09 72.56m116.13-194.5s-7.25 70.47-95.56 122.14c11.57 29.23-18.7 44.37-16.09 72.56 45.94-39.67 46.98-31.84 46.98-31.84s-2.61-40.71 36.54-36.54c54.28-48.03 28.13-126.32 28.13-126.32m-61.04 67.48c-19.95 18.84-38.8 26.2-38.8 26.2l-14.08-8.21-14.08 8.01s-18.79-7.11-38.8-26c8.32 22.88 21.15 35.32 42.29 47.63 5.25 5.12 6.65 24.77 10.59 43.48 3.94-18.71 5.34-38.37 10.59-43.48 21.14-12.31 33.97-24.74 42.29-47.63" style="fill:url(#a)"/><path d="M52.69 100.65c17.79 29.27 39.25 59.29 71.51 73.35-.7 16.38 3.46 27.94 12.91 41.2-12.03-10.26-18.45-23.34-19.07-39.17l1.92 2.79c-32.84-12.32-56.89-45.67-67.27-78.17m215.04 0c-10.37 32.48-34.43 65.85-67.27 78.16l1.92-2.79c-.63 15.85-7.03 28.91-19.07 39.17 9.46-13.27 13.61-24.83 12.91-41.2 32.27-14.05 53.72-44.06 71.51-73.34m-117.46 51.32 9.69 6.62 9.69-6.62-9.69-4.38z" style="fill:#6ae89a"/></svg>