<svg xmlns="http://www.w3.org/2000/svg" xml:space="preserve" x="0px" y="0px" viewBox="0 0 320 320"><path d="M310 140.01c-1.42 39.1-68.32 77.54-96.22 34.28 13.3-12.77 61.23 4.81 96.22-34.28m-300 0c1.42 39.1 68.32 77.54 96.22 34.28-13.3-12.77-61.23 4.81-96.22-34.28" style="fill:#8e6a2b"/><path d="M159.53 282.56c-16.67-31.91-36.62-29.83-58.87-39.72-17.43-7.74-24.82-22.34-23.4-30.14 13.56-1.2 24.82-32.27 24.82-32.27s-11.57 11.86-30.5 11.7C24.42 146.75 10.95 116.25 19.1 66.96c8.16 53.9 82.98 90.78 82.98 90.78l57.21 66.67zm0 0c16.67-31.91 36.62-29.83 58.87-39.72 17.43-7.74 24.82-22.34 23.4-30.14-13.56-1.2-24.82-32.27-24.82-32.27s11.57 11.86 30.5 11.7c47.16-45.39 60.64-75.89 52.48-125.18-8.16 53.9-82.98 90.78-82.98 90.78l-57.21 66.67z" style="fill:#8e6a2b"/><linearGradient id="a" x1="107.8388" x2="211.2157" y1="137.9366" y2="137.9366" gradientUnits="userSpaceOnUse"><stop offset="0" style="stop-color:#ffda00"/><stop offset="1" style="stop-color:#c69200"/></linearGradient><path d="M159.53 166.67s25.84-33.28 51.69-57.35c-23.37-2.12-51.69 24.07-51.69 24.07s-28.32-26.2-51.69-24.07c25.84 24.08 51.69 57.35 51.69 57.35" style="fill:url(#a)"/><linearGradient id="b" x1="39.9072" x2="279.1464" y1="153.0851" y2="153.0851" gradientUnits="userSpaceOnUse"><stop offset="0" style="stop-color:#ffda00"/><stop offset="1" style="stop-color:#c69200"/></linearGradient><path d="M271.23 37.44c-26.6 89.8-87.59 119.24-87.59 119.24s6.52 29.06-13.72 47.25l-10.4-20.65-9.94 21.03c-20.77-18.16-14.17-47.63-14.17-47.63S74.42 127.24 47.82 37.44c-40.43 132.71 85.82 158.6 111.7 231.29 25.89-72.69 152.13-98.58 111.71-231.29" style="fill:url(#b)"/><g style="opacity:.46"><path d="M49.33 66.96c2.19 20.99 12.05 40.61 25.17 56.87 13.21 16.28 29.98 29.22 48.02 39.82l2.06 1.21-.3 2.2c-.85 12.78 3.42 25.77 10.77 36.21l2.3 3.24c.68.79 3.19 3.73 3.89 4.55 1.06 1.08 3.22 3.22 4.27 4.27 1.98 1.83 4.1 3.51 6.15 5.33-2.16-1.27-5.06-2.77-7.07-4.17-1.29-.92-3.81-2.76-5.02-3.66-.91-.81-3.68-3.32-4.64-4.18l-2.85-3.07c-1.35-1.37-2.75-3.4-3.92-4.94-2.33-3.2-4.72-7.42-6.24-11.06-2.81-6.6-4.49-13.72-4.6-20.92-.02-.81 0-1.48.06-2.36l1.76 3.4c-24.05-12.73-45.93-31.32-58.91-55.58-7.49-14.39-12.47-30.83-10.9-47.16" style="fill:#ffda00"/></g><g style="opacity:.46"><path d="M269.14 66.96c1.6 16.34-3.38 32.78-10.89 47.17-12.98 24.26-34.88 42.84-58.96 55.53l1.75-3.07c-.03 1.54-.13 2.83-.27 4.21-2.02 19.79-12.38 39.24-29.48 49.85 7.4-7.16 13.38-15.45 17.18-24.97 3.94-9.75 6.11-20.43 5.67-30.93l1.82-1.07c11.32-6.66 22.06-14.23 31.8-22.96 21.31-19.04 38.22-44.89 41.38-73.76" style="fill:#ffda00"/></g><g style="opacity:.46"><path d="M137.55 126.95c8.66 5.83 16.36 12.87 23.76 20.18h-3.58c7.4-7.31 15.1-14.37 23.76-20.18-5.82 8.67-12.87 16.37-20.18 23.76l-1.79 1.8c-7.94-7.96-15.67-16.2-21.97-25.56" style="fill:#ffda00"/></g></svg>