<svg xmlns="http://www.w3.org/2000/svg" xml:space="preserve" x="0px" y="0px" viewBox="0 0 320 320"><path d="m149.49 264.85-12.25-25.52-39.99-20.47s-8.36-25.72-22.35-34.43c-10.53-6.55-22.19-12.29-34.98-16.57C14.41 108.36 10 94.82 10 94.82l52.46 29.6 81.99 106.43z" style="fill:#542e2b"/><path d="M152.1 246.59s8.87-15.32 1.5-41.74c-5.64-20.22-44.01-15.75-51.93-78.27-10.4-10.13-22.7-20.73-37.2-31.76l-8.82-35.9s-6.61-11.02-37.78-12.9C37.08 64.91 41.8 87.9 39.28 131.35c0 0 98.65 47.86 112.82 115.24" style="fill:#a33b26"/><path d="m170.51 264.85 12.25-25.52 39.99-20.47s8.36-25.72 22.35-34.43c10.53-6.55 22.19-12.29 34.98-16.57C305.59 108.36 310 94.82 310 94.82l-52.46 29.6-81.99 106.43z" style="fill:#542e2b"/><path d="M167.89 246.59s-8.87-15.32-1.5-41.74c5.64-20.22 44.01-15.75 51.93-78.27 10.4-10.13 22.7-20.73 37.2-31.76l8.82-35.9s6.61-11.02 37.78-12.91c-19.21 18.89-23.93 41.88-21.41 85.33-.01.01-98.65 47.87-112.82 115.25" style="fill:#a33b26"/><linearGradient id="a" x1="14.723" x2="305.2768" y1="182.5135" y2="182.5135" gradientUnits="userSpaceOnUse"><stop offset="3.990269e-09" style="stop-color:#fed140"/><stop offset="1" style="stop-color:#cd6401"/></linearGradient><path d="M126.01 191.31c-6.27-4.55 1.97-29.42-28.79-50.51 2.98 12.3 3.5 21.15 1.57 25.82-15.43-16.68-34.13-41.69-46.29-75.57-2.66 22.81 3.91 40.34 10.14 51.28-8.03-7.09-22.47-14.44-47.92-14.44 34.64 14.17 39.04 19.84 42.51 65.49 19.52 13.22 31.49 41.56 31.49 41.56s45.97-1.57 65.49 39.04c0 0-.63-58.57-9.76-68.96-2.75-3.13-9.52-7.24-18.44-13.71m-25.46 24.72s-7.4-22.32-25.66-33.52c36.04 20.29 50.53 46.11 50.53 46.11s-7.08-8.81-24.87-12.59m59.47-1.24s-.01-.04-.02-.12c-.01.08-.02.12-.02.12s-5.35-25.82-24.87-34.95c-2.01-17.36-1.89-32.12-25.51-39.36 17.32-8.5 36.76 4.12 47.77 46.29 1.42 5.45 2.21 10.19 2.63 14.16.42-3.97 1.21-8.71 2.63-14.16 11.01-42.16 30.45-54.79 47.77-46.29-23.62 7.24-23.49 22-25.51 39.36-19.52 9.13-24.87 34.95-24.87 34.95m-.02-36.53-15.23-41.56L160 118.75l15.23 17.95zm97.35-35.94c6.22-10.94 12.8-28.47 10.14-51.28-12.16 33.88-30.85 58.89-46.29 75.57-1.92-4.67-1.41-13.52 1.57-25.82-30.76 21.1-22.51 45.96-28.79 50.51-8.92 6.48-15.69 10.59-18.45 13.72-9.13 10.39-9.76 68.96-9.76 68.96 19.52-40.62 65.49-39.04 65.49-39.04s11.96-28.34 31.49-41.56c3.46-45.66 7.87-51.32 42.51-65.49-25.43-.01-39.88 7.35-47.91 14.43m-37.9 73.71c-17.79 3.78-24.86 12.59-24.86 12.59s14.48-25.82 50.53-46.11c-18.27 11.2-25.67 33.52-25.67 33.52" style="fill:url(#a)"/><path d="m166.1 136.44-6.1-7.14-6.1 7.15s5.77 17.69 6.09 17.69c.34 0 6.11-17.7 6.11-17.7m-36.56 9.86c9.8 5.54 15.35 17.35 14.38 28.46l-.86-1.62c5.16 3.32 9.47 8.9 9.56 15.23-2.23-5.32-6.44-9.43-11.42-12.17l-.87-.49.01-1.13c.23-10.43-4.09-20.37-10.8-28.28m60.63 0c-6.71 7.91-11.02 17.85-10.8 28.28l.01 1.13-.87.49c-4.98 2.73-9.19 6.85-11.42 12.17.1-6.33 4.4-11.91 9.56-15.23l-.86 1.62c-.97-11.11 4.57-22.92 14.38-28.46M67.16 135.13c15.48 25.06 35.15 46.91 57.11 66.36 3.11 2.91 6.45 5.49 9.51 8.49-3.38-1.57-6.72-3.34-9.99-5.14-25.13-14.94-48.84-41.11-56.63-69.71M55.29 146.3c10.53 11.12 16.99 27.13 14.31 42.53l-1.02-2.52c3.23 2.35 6.25 4.97 8.97 7.86 8.01 8.58 14.16 19.11 16.95 30.52-5.57-9.92-12.24-19.22-20.39-27.11-3.03-2.97-6.36-5.62-9.79-8.1.78-3.96 1.15-7.99.86-12.06-.74-10.94-4.76-21.44-9.89-31.12m198.25-11.24c-7.78 28.59-31.49 54.77-56.62 69.72-3.27 1.8-6.61 3.56-9.99 5.14 3.06-3 6.4-5.58 9.51-8.49 21.95-19.46 41.62-41.31 57.1-66.37m11.88 11.17c-5.13 9.67-9.15 20.17-9.89 31.11-.29 4.07.07 8.11.86 12.06-3.43 2.48-6.76 5.13-9.79 8.1-8.15 7.9-14.82 17.2-20.39 27.11 2.79-11.41 8.94-21.94 16.95-30.52a64.7 64.7 0 0 1 8.97-7.86l-1.02 2.52c-2.67-15.39 3.78-31.4 14.31-42.52" style="fill:#fed140"/></svg>