<svg xmlns="http://www.w3.org/2000/svg" xml:space="preserve" x="0px" y="0px" viewBox="0 0 320 320"><path d="M39.12 134.82s-32.8 36.47 16.4 94.69c0 0 .82-35.26 34.85-17.22s34.03 44.28 34.03 44.28 28.7-36.08 0-83.64-85.28-38.11-85.28-38.11m241.76 0s32.8 36.47-16.4 94.69c0 0-.82-35.26-34.85-17.22s-34.03 44.28-34.03 44.28-28.7-36.08 0-83.64 85.28-38.11 85.28-38.11" style="fill:#665350"/><linearGradient id="a" x1="10" x2="310" y1="154.2173" y2="154.2173" gradientUnits="userSpaceOnUse"><stop offset="0" style="stop-color:#a49795"/><stop offset="1" style="stop-color:#725d59"/></linearGradient><path d="M152.4 199.87c3.51 21.76 2.91 45.13 2.91 45.13s-1.49-16.12-36.73-41.34-73.83-23.68-96.69-70.54c-15.26-31.28-11.48-69.7-11.48-69.7s7.13 21.89 42.55 49.71c35.43 27.83 90.28 29.86 99.44 86.74M309.58 63.43s-7.13 21.89-42.55 49.71-90.27 29.86-99.43 86.74c-3.5 21.76-2.91 45.13-2.91 45.13s1.49-16.12 36.73-41.34 73.83-23.68 96.69-70.54c15.26-31.28 11.47-69.7 11.47-69.7m-118.06 57.04s-19.83-12.01-32.45-12.01-32.45 12.01-32.45 12.01 7.21 28 32.45 39.72c25.23-11.71 32.45-39.72 32.45-39.72" style="fill:url(#a)"/><path d="M176.38 124.84s-12.41-5.14-17.32-5.14-17.32 5.14-17.32 5.14 7.51-.56 17.32 2.15c9.81-2.71 17.32-2.15 17.32-2.15M28.99 108.46c16.69 12.93 33.4 25.88 52.34 35.01 3.39 1.66 6.51 2.84 10.14 4.33 9.56 3.89 18.55 9.51 25.82 16.85 3.6 3.68 6.79 7.72 9.29 12.14-7.34-6.99-15.41-12.65-24.09-17.06-7.74-4.13-16.14-6.23-24.13-9.91-19.65-9.31-36.56-23.95-49.37-41.36m266.62 0c-12.81 17.4-29.72 32.05-49.37 41.37-7.99 3.68-16.39 5.78-24.13 9.91-8.68 4.4-16.75 10.07-24.09 17.06 2.5-4.42 5.69-8.47 9.29-12.14 7.27-7.34 16.25-12.97 25.82-16.85 3.63-1.49 6.76-2.67 10.14-4.33 18.94-9.14 35.64-22.09 52.34-35.02" style="fill:#a49795"/></svg>