<svg xmlns="http://www.w3.org/2000/svg" xml:space="preserve" x="0px" y="0px" viewBox="0 0 320 320"><path d="M133.03 237.06s-72.48 13.88-97.92-66.31c12.56-1.88 31.91 3.86 40.83 24.5 8.21 19.01 43.7 19.61 57.09 41.81m54.71 0s72.48 13.88 97.92-66.31c-12.56-1.88-31.91 3.86-40.83 24.5-8.22 19.01-43.7 19.61-57.09 41.81" style="fill:#692da4"/><path d="M116.66 227.21s-16.71-24.16-61.68-47.29C48.3 157.05 36.99 136.74 10 109.76c31.87-2.83 133.13 71.19 106.66 117.45m86.68 0s16.71-24.16 61.68-47.29c6.68-22.87 17.99-43.18 44.98-70.16-31.87-2.83-133.13 71.19-106.66 117.45" style="fill:#9c50db"/><linearGradient id="a" x1="21.1605" x2="298.8394" y1="160" y2="160" gradientUnits="userSpaceOnUse"><stop offset="0" style="stop-color:#eea6f2"/><stop offset="1" style="stop-color:#d84cfa"/></linearGradient><path d="m148.36 220.11 3.36 41.53c-38.82-22.61-50.28-46.95-59.61-67.45-4.9-10.76-11.64-20.62-20.23-28.73-32.2-30.42-50.49-83.55-50.72-107.11C36.03 75.7 68.12 81.98 80.5 98.32c.77 37.69 23.96 60.42 46.55 76.46-7.71 9.51-2.83 15.36 3.98 18.83 10.01 5.1 16.42 15.3 17.33 26.5M239.5 98.32c-.77 37.69-23.96 60.42-46.55 76.46 7.71 9.51 2.83 15.36-3.98 18.83-10.02 5.1-16.42 15.31-17.33 26.51l-3.36 41.53c38.82-22.61 50.28-46.95 59.61-67.45 4.9-10.76 11.64-20.62 20.23-28.73 32.2-30.42 50.49-83.55 50.72-107.11-14.87 17.34-46.96 23.62-59.34 39.96" style="fill:url(#a)"/><path d="M45.58 90.03c7.04 1.87 14.02 4.29 20.2 8.28 1.71 1.17 3.23 2.58 4.38 4.32.74 15.59 5.92 30.76 14.22 43.91.51.76 3.15 4.56 3.71 5.38l3.27 4.09c5.52 6.86 12.12 12.69 19.02 18.25l1.03.84.1.94c.33 3.33-.08 6.1.01 9.23-.08 8.64 4.46 14.43 12.19 17.93l2.04.97c-10.38-1.55-17.59-7.78-18.76-18.53-.46-3.11-.4-6.34-.88-8.69l1.13 1.78c-6.95-4.62-13.61-9.91-19.34-16.11-9.54-10.37-16.71-23.17-20.04-36.89a74.8 74.8 0 0 1-2.12-22.35l.28 1.08c-.6-1.15-1.65-2.23-2.61-3.13-5.35-4.53-11.66-7.92-17.83-11.3" style="fill:#eea6f2"/><linearGradient id="b" x1="106.2297" x2="213.8577" y1="173.4579" y2="173.4579" gradientUnits="userSpaceOnUse"><stop offset="0" style="stop-color:#eea6f2"/><stop offset="1" style="stop-color:#d84cfa"/></linearGradient><path d="M160.04 162.2c2.16-2.84 12.42-10.15 12.05-10.57-5.75-6.59-6.43-16.61-6.43-16.61s-2.98-3.28-5.62-4.62c-2.64 1.34-5.62 4.62-5.62 4.62s-.68 10.02-6.43 16.61c-.35.42 9.89 7.74 12.05 10.57m0 6.23s-11.65-8.59-15.64-12.04c-10.22-8.85-23.28-22.84-38.18-29.57 15.28 31.24 34.43 50.16 45.25 59.14 4.53 20.41 8.48 34.15 8.48 34.15h.17s3.5-12.96 8.48-34.15c10.82-8.99 29.97-27.9 45.25-59.14-14.89 6.73-28.16 20.49-38.18 29.57z" style="fill:url(#b)"/><path d="M274.42 90.03c-6.16 3.38-12.48 6.77-17.83 11.32-.98.91-2 1.99-2.61 3.13l.28-1.08c.42 7.47-.29 15.07-2.12 22.35-3.33 13.72-10.51 26.51-20.04 36.89-5.73 6.2-12.39 11.49-19.34 16.11l1.13-1.78c-.48 2.35-.42 5.58-.88 8.69-1.16 10.73-8.38 16.99-18.76 18.53l2.04-.97c7.75-3.53 12.26-9.27 12.19-17.93.09-3.14-.32-5.9.01-9.23l.1-.94 1.03-.84c6.9-5.56 13.5-11.39 19.02-18.25l3.27-4.09c1.02-1.53 3.52-4.96 4.38-6.5 7.96-12.85 12.8-27.65 13.55-42.79 1.45-2.24 3.62-3.92 5.86-5.27 5.86-3.41 12.21-5.64 18.72-7.35m-89.76 65.79c-5.15 9.21-14.54 21.92-24.61 25.94-6.2-2.45-10.5-7.02-14.73-11.74-3.76-4.41-7.15-9.09-9.89-14.2 4.25 3.83 8.32 7.8 12.55 11.6 3.94 3.45 8.26 7.54 12.92 9.57h-1.73c4.66-2.04 8.99-6.11 12.93-9.57 4.24-3.79 8.31-7.76 12.56-11.6m-18.94-4.63-5.67-9.02-5.67 9.02s5.37 4.63 5.67 4.63 5.67-4.63 5.67-4.63" style="fill:#eea6f2"/><path d="m163.6 179.21-3.56 18.14-3.55-18.14z" style="fill:#eea6f2"/></svg>