<svg xmlns="http://www.w3.org/2000/svg" xml:space="preserve" x="0px" y="0px" viewBox="0 0 320 320"><path d="m160 261.35 15.52-16.68-2.31-21.79L160 208.03l-13.21 14.85-2.31 21.79z" style="fill:#227f8c"/><path d="M152.24 274.15s-58.28-18.3-105.14-72.1c46.22 22.65 43.97 14.46 43.97 14.46S77.18 192.8 47.1 180.65s-9.83-60.32-34.71-92.64 153.15 120.87 139.85 186.14m15.52 0s58.28-18.3 105.14-72.1c-46.22 22.65-43.97 14.46-43.97 14.46s13.88-23.72 43.97-35.87 9.83-60.32 34.71-92.64-153.15 120.88-139.85 186.15" style="fill:#227f8c"/><linearGradient id="a" x1="32.6938" x2="287.3059" y1="149.4773" y2="149.4773" gradientUnits="userSpaceOnUse"><stop offset="0" style="stop-color:#58efea"/><stop offset="1" style="stop-color:#5abfab"/></linearGradient><path d="M156.43 253.11c-43.39-32.97-79.83-75.78-79.83-75.78s-3.47-39.92-26.03-50.91-17.35-80.57-17.35-80.57 4.63 67.26 98.92 131.47c-2.9 19.67 25.45 37.61 24.29 75.79M286.79 45.85s-4.63 67.26-98.92 131.47c2.89 19.67-25.45 37.6-24.3 75.78 43.39-32.97 79.83-75.78 79.83-75.78s3.47-39.92 26.03-50.91 17.36-80.56 17.36-80.56m-73.11 82.73c-31.74 8.18-43.77 17.11-53.68 46.29-9.92-29.18-21.95-38.11-53.68-46.29 13.89 38.19 38.56 27.77 53.68 67.7 15.13-39.93 39.8-29.52 53.68-67.7m-54.9 26.38c.41 1.15 2.02 1.15 2.43 0 3.32-9.35 12.3-15.48 12.3-15.48l-13.51-23-13.51 23.01s8.97 6.13 12.29 15.47" style="fill:url(#a)"/><path d="M82.49 155.09c5.42 3.9 12.84 9.82 18.19 13.93 5.76 4.35 11.78 9 18.16 12.05l1.93.9c.66 7.43 2.31 14.76 4.91 21.8 2.39 6.61 5.54 12.79 9.41 18.78-12.37-8.4-19.62-23.08-21.4-37.71l2.15 2.95c-3.89-1.76-7.19-4.06-10.34-6.48-9.14-7.34-16.98-16.2-23.01-26.22m156.87 0c-6.03 10.02-13.88 18.87-23.01 26.21-3.15 2.42-6.45 4.72-10.34 6.48l2.15-2.95c-1.78 14.63-9.03 29.32-21.4 37.71 3.86-5.99 7.02-12.18 9.41-18.78a85.2 85.2 0 0 0 4.91-21.8l1.93-.9c6.38-3.05 12.4-7.7 18.16-12.05 5.36-4.11 12.73-9.99 18.19-13.92m-122.88-16.67c14.43 2.23 29.96 14.36 31.63 29.52-8.18-12.13-20.08-20.85-31.63-29.52m87.26 0c-11.54 8.67-23.45 17.39-31.63 29.52 1.66-15.15 17.19-27.29 31.63-29.52m-48.87-3.86 5.13 8.45 5.13-8.45-5.13-8.74z" style="fill:#58efea"/></svg>