<svg xmlns="http://www.w3.org/2000/svg" xml:space="preserve" x="0px" y="0px" viewBox="0 0 320 320"><path d="M154.18 266.41s-90.96-87.9-78.9-39.1C32.02 207.93 46.21 163.98 10 140.45c31.36 0 155.6 59.52 144.18 125.96" style="fill:#828a9b"/><path d="M160 197.4s-12.64-22.24-47.99-36.54c7.29 20.28 31.44 41.83 42.55 68.28 2.02 4.81 8.86 4.81 10.88 0 11.11-26.45 35.26-48 42.55-68.28C172.64 175.16 160 197.4 160 197.4" style="fill:#828a9b"/><path d="M165.82 266.41s90.96-87.9 78.9-39.1c43.26-19.38 29.07-63.33 65.28-86.86-31.36 0-155.6 59.52-144.18 125.96" style="fill:#828a9b"/><linearGradient id="a" x1="17.0181" x2="302.9815" y1="140.4482" y2="140.4482" gradientUnits="userSpaceOnUse"><stop offset="0" style="stop-color:#d8dbe5"/><stop offset="1" style="stop-color:#b2b7b8"/></linearGradient><path d="M147.25 227.31c-99.31-48.94-39.1-64.02-111.77-96.2C11.26 106.89 17.83 53.6 17.83 53.6s10.04 25.95 38.41 50.87c28.38 24.9 66.45 13.83 91.01 122.84m57.68-98.28c-17.82-1.04-22.35 2.42-31.32 3.29-4.48.43-9.08-20.24-13.61-20.24s-9.13 20.68-13.61 20.24c-8.97-.86-13.5-4.33-31.32-3.29 0 0 39.04 22.84 44.93 47.65 5.89-24.81 44.93-47.65 44.93-47.65m97.24-75.44s-10.04 25.95-38.41 50.87c-28.38 24.92-66.44 13.84-91.01 122.85 99.31-48.94 39.1-64.02 111.77-96.2 24.22-24.23 17.65-77.52 17.65-77.52" style="fill:url(#a)"/><path d="M38.43 113.48c10.51 1.65 20.17 6.78 28.68 13.03 12.31 9.21 21.9 21.74 28.78 35.41 1.74 3.77 3.3 7.66 5.04 11.43.36.58 1.02 1.67 1.36 2.23 6.27 8.62 15.41 15.06 24.19 21.23-10.05-3.6-19.54-8.56-27.12-16.39-3.76-3.75-5.89-9.16-8.33-13.86-11.67-22.31-29.45-42.4-52.6-53.08m243.14 0c-23.15 10.68-40.93 30.76-52.6 53.08-2.45 4.7-4.58 10.12-8.33 13.86-7.58 7.83-17.07 12.79-27.12 16.39 8.27-5.8 16.93-11.93 23.11-19.79l1.08-1.44.9-1.49.46-.74c1.46-3.17 2.8-6.42 4.22-9.61.41-1.06 1.21-2.56 1.77-3.57 1.17-2.07 2.62-5.02 3.88-6.98 11.79-18.91 30.13-35.7 52.63-39.71M143.36 137.3c5.91 1.55 11.46 4.14 16.83 6.98h-1.75c2.66-1.44 5.38-2.76 8.17-3.95 2.83-1.18 5.67-2.28 8.67-3.03-1.14 1.08-2.35 2.01-3.56 2.95-3.91 2.92-8.1 5.46-12.4 7.74-5.64-3.04-11.17-6.39-15.96-10.69" style="fill:#d8dbe5"/><path d="M162.82 145.15 159.75 158l-3.93-12.61z" style="fill:#d8dbe5"/></svg>